<svg xmlns="http://www.w3.org/2000/svg" width="78.205" height="24.932" viewBox="0 0 78.205 24.932">
  <g id="Group_1642" data-name="Group 1642" transform="translate(-432.006 -644.456)">
    <g id="noun_Arrow_2168726" transform="translate(510.211 644.456) rotate(90)">
      <path id="Path_2478" data-name="Path 2478" d="M24.386,13.382a1.75,1.75,0,0,1-2.492,0L14.24,5.909V76.467a1.781,1.781,0,0,1-3.56,0V5.909L3.026,13.382a1.75,1.75,0,0,1-2.492,0,1.653,1.653,0,0,1,0-2.433L11.214.521l.267-.261c.089,0,.089-.087.178-.087s.089-.087.178-.087.089,0,.178-.087h.89c.089,0,.089,0,.178.087.089,0,.089,0,.178.087.089,0,.089.087.178.087a.087.087,0,0,1,.089.087L13.8.608l10.68,10.427A1.628,1.628,0,0,1,24.386,13.382Z" transform="translate(0)" fill="#606060"/>
    </g>
  </g>
</svg>
