<svg xmlns="http://www.w3.org/2000/svg" width="25" height="25" viewBox="0 0 25 25">
  <g id="noun_copyright_2329511" transform="translate(-25.6 -25.6)">
    <path id="Path_2479" data-name="Path 2479" d="M43.026,50.3a7.3,7.3,0,0,1,0-14.6h0A7.288,7.288,0,0,1,48.2,37.852a1.087,1.087,0,1,1-1.537,1.537A5.071,5.071,0,0,0,43.026,37.9h0a5.07,5.07,0,0,0-3.637,1.486,5.164,5.164,0,0,0,0,7.275,5.2,5.2,0,0,0,7.275,0A1.087,1.087,0,0,1,48.2,48.2,7.327,7.327,0,0,1,43.026,50.3Z" transform="translate(-4.926 -4.926)" fill="#343434"/>
    <path id="Path_2480" data-name="Path 2480" d="M38.1,50.6A12.5,12.5,0,1,1,50.6,38.1,12.517,12.517,0,0,1,38.1,50.6Zm0-22.848A10.348,10.348,0,1,0,48.448,38.1,10.352,10.352,0,0,0,38.1,27.752Z" transform="translate(0 0)" fill="#343434"/>
  </g>
</svg>
