<svg xmlns="http://www.w3.org/2000/svg" width="43.012" height="35" viewBox="0 0 43.012 35">
  <path id="_ionicons_svg_logo-twitter" d="M63.112,68.147a17.84,17.84,0,0,1-5.068,1.395,8.855,8.855,0,0,0,3.883-4.885A17.535,17.535,0,0,1,56.321,66.8a8.822,8.822,0,0,0-15.267,6.034,8.639,8.639,0,0,0,.228,2.014A25.008,25.008,0,0,1,23.09,65.613a8.842,8.842,0,0,0,2.743,11.794,8.619,8.619,0,0,1-4.01-1.1v.109A8.832,8.832,0,0,0,28.9,85.073a8.883,8.883,0,0,1-2.324.31,8.325,8.325,0,0,1-1.659-.164,8.838,8.838,0,0,0,8.249,6.134,17.692,17.692,0,0,1-10.965,3.783,17.887,17.887,0,0,1-2.105-.128A24.666,24.666,0,0,0,33.608,99c16.251,0,25.129-13.462,25.129-25.138,0-.383-.009-.766-.027-1.139A17.963,17.963,0,0,0,63.112,68.147Z" transform="translate(-20.1 -64)" fill="#55acee"/>
</svg>

